<mxfile host="app.diagrams.net" modified="2022-02-26T04:01:16.435Z" agent="5.0 (Macintosh; Intel Mac OS X 10_15_7) AppleWebKit/537.36 (KHTML, like Gecko) Chrome/98.0.4758.80 Safari/537.36" etag="xSj05DeWnxlUAoWuQWxn" version="16.6.4" type="github">
  <diagram id="-bsZU7oH1XAJJV75D_Rq" name="Page-1">
    <mxGraphModel dx="2089" dy="1043" grid="0" gridSize="10" guides="1" tooltips="1" connect="1" arrows="1" fold="1" page="0" pageScale="1" pageWidth="827" pageHeight="1169" math="0" shadow="0">
      <root>
        <mxCell id="0" />
        <mxCell id="1" parent="0" />
        <mxCell id="CUxfMHXMr-beOVDLbjT0-138" value="" style="rounded=0;whiteSpace=wrap;html=1;fontSize=16;" vertex="1" parent="1">
          <mxGeometry x="119" y="756" width="594" height="335" as="geometry" />
        </mxCell>
        <mxCell id="CUxfMHXMr-beOVDLbjT0-47" value="" style="rounded=0;whiteSpace=wrap;html=1;fontSize=16;" vertex="1" parent="1">
          <mxGeometry x="56" y="274" width="568" height="255" as="geometry" />
        </mxCell>
        <mxCell id="CUxfMHXMr-beOVDLbjT0-4" value="&lt;font style=&quot;font-size: 16px&quot;&gt;Tccm Agent&lt;/font&gt;" style="rounded=1;whiteSpace=wrap;html=1;" vertex="1" parent="1">
          <mxGeometry x="744" y="390" width="170" height="60" as="geometry" />
        </mxCell>
        <mxCell id="CUxfMHXMr-beOVDLbjT0-6" value="" style="rounded=1;whiteSpace=wrap;html=1;" vertex="1" parent="1">
          <mxGeometry x="200" y="390" width="200" height="60" as="geometry" />
        </mxCell>
        <mxCell id="CUxfMHXMr-beOVDLbjT0-7" value="" style="endArrow=classic;html=1;rounded=0;entryX=0;entryY=0.25;entryDx=0;entryDy=0;exitX=1;exitY=0.5;exitDx=0;exitDy=0;" edge="1" parent="1" source="CUxfMHXMr-beOVDLbjT0-40" target="CUxfMHXMr-beOVDLbjT0-6">
          <mxGeometry width="50" height="50" relative="1" as="geometry">
            <mxPoint x="100" y="380" as="sourcePoint" />
            <mxPoint x="120" y="350" as="targetPoint" />
          </mxGeometry>
        </mxCell>
        <mxCell id="CUxfMHXMr-beOVDLbjT0-9" value="data" style="ellipse;whiteSpace=wrap;html=1;aspect=fixed;" vertex="1" parent="1">
          <mxGeometry x="210" y="405" width="30" height="30" as="geometry" />
        </mxCell>
        <mxCell id="CUxfMHXMr-beOVDLbjT0-10" value="data" style="ellipse;whiteSpace=wrap;html=1;aspect=fixed;" vertex="1" parent="1">
          <mxGeometry x="255" y="405" width="30" height="30" as="geometry" />
        </mxCell>
        <mxCell id="CUxfMHXMr-beOVDLbjT0-11" value="data" style="ellipse;whiteSpace=wrap;html=1;aspect=fixed;" vertex="1" parent="1">
          <mxGeometry x="310" y="405" width="30" height="30" as="geometry" />
        </mxCell>
        <mxCell id="CUxfMHXMr-beOVDLbjT0-12" value="data" style="ellipse;whiteSpace=wrap;html=1;aspect=fixed;" vertex="1" parent="1">
          <mxGeometry x="360" y="405" width="30" height="30" as="geometry" />
        </mxCell>
        <mxCell id="CUxfMHXMr-beOVDLbjT0-16" value="" style="endArrow=classic;html=1;rounded=0;entryX=0;entryY=0.5;entryDx=0;entryDy=0;exitX=1;exitY=0.5;exitDx=0;exitDy=0;" edge="1" parent="1" source="CUxfMHXMr-beOVDLbjT0-42" target="CUxfMHXMr-beOVDLbjT0-6">
          <mxGeometry width="50" height="50" relative="1" as="geometry">
            <mxPoint x="100" y="420" as="sourcePoint" />
            <mxPoint x="130" y="420" as="targetPoint" />
          </mxGeometry>
        </mxCell>
        <mxCell id="CUxfMHXMr-beOVDLbjT0-17" value="" style="endArrow=classic;html=1;rounded=0;entryX=0;entryY=0.75;entryDx=0;entryDy=0;exitX=1;exitY=0.5;exitDx=0;exitDy=0;" edge="1" parent="1" source="CUxfMHXMr-beOVDLbjT0-43" target="CUxfMHXMr-beOVDLbjT0-6">
          <mxGeometry width="50" height="50" relative="1" as="geometry">
            <mxPoint x="100" y="460" as="sourcePoint" />
            <mxPoint x="150" y="460" as="targetPoint" />
          </mxGeometry>
        </mxCell>
        <mxCell id="CUxfMHXMr-beOVDLbjT0-18" value="&lt;font style=&quot;font-size: 17px&quot;&gt;Tccm SDK&lt;/font&gt;" style="text;html=1;align=center;verticalAlign=middle;resizable=0;points=[];autosize=1;strokeColor=none;fillColor=none;" vertex="1" parent="1">
          <mxGeometry x="277" y="287" width="100" height="20" as="geometry" />
        </mxCell>
        <mxCell id="CUxfMHXMr-beOVDLbjT0-20" value="多线程" style="text;html=1;align=center;verticalAlign=middle;resizable=0;points=[];autosize=1;strokeColor=none;fillColor=none;fontSize=16;" vertex="1" parent="1">
          <mxGeometry x="87" y="331" width="60" height="20" as="geometry" />
        </mxCell>
        <mxCell id="CUxfMHXMr-beOVDLbjT0-28" value="" style="group" vertex="1" connectable="0" parent="1">
          <mxGeometry x="484" y="331" width="83" height="83" as="geometry" />
        </mxCell>
        <mxCell id="CUxfMHXMr-beOVDLbjT0-23" value="" style="ellipse;whiteSpace=wrap;html=1;aspect=fixed;fontSize=16;" vertex="1" parent="CUxfMHXMr-beOVDLbjT0-28">
          <mxGeometry width="82.07268524463849" height="82.07268524463849" as="geometry" />
        </mxCell>
        <mxCell id="CUxfMHXMr-beOVDLbjT0-24" value="data" style="ellipse;whiteSpace=wrap;html=1;aspect=fixed;" vertex="1" parent="CUxfMHXMr-beOVDLbjT0-28">
          <mxGeometry x="26.489361702127656" y="10.595744680851066" width="26.193410184459093" height="26.193410184459093" as="geometry" />
        </mxCell>
        <mxCell id="CUxfMHXMr-beOVDLbjT0-25" value="data" style="ellipse;whiteSpace=wrap;html=1;aspect=fixed;" vertex="1" parent="CUxfMHXMr-beOVDLbjT0-28">
          <mxGeometry x="12.361702127659573" y="43.265957446808514" width="26.193410184459093" height="26.193410184459093" as="geometry" />
        </mxCell>
        <mxCell id="CUxfMHXMr-beOVDLbjT0-26" value="data" style="ellipse;whiteSpace=wrap;html=1;aspect=fixed;" vertex="1" parent="CUxfMHXMr-beOVDLbjT0-28">
          <mxGeometry x="45.914893617021285" y="43.265957446808514" width="26.193410184459093" height="26.193410184459093" as="geometry" />
        </mxCell>
        <mxCell id="CUxfMHXMr-beOVDLbjT0-29" value="" style="endArrow=classic;html=1;rounded=0;fontSize=16;exitX=1;exitY=0.25;exitDx=0;exitDy=0;entryX=0;entryY=0.5;entryDx=0;entryDy=0;startArrow=none;" edge="1" parent="1" source="CUxfMHXMr-beOVDLbjT0-49" target="CUxfMHXMr-beOVDLbjT0-23">
          <mxGeometry width="50" height="50" relative="1" as="geometry">
            <mxPoint x="415" y="404" as="sourcePoint" />
            <mxPoint x="465" y="354" as="targetPoint" />
          </mxGeometry>
        </mxCell>
        <mxCell id="CUxfMHXMr-beOVDLbjT0-30" value="" style="endArrow=classic;html=1;rounded=0;fontSize=16;exitX=1;exitY=0.5;exitDx=0;exitDy=0;entryX=0;entryY=0.25;entryDx=0;entryDy=0;" edge="1" parent="1" source="CUxfMHXMr-beOVDLbjT0-23" target="CUxfMHXMr-beOVDLbjT0-4">
          <mxGeometry width="50" height="50" relative="1" as="geometry">
            <mxPoint x="655" y="355" as="sourcePoint" />
            <mxPoint x="705" y="305" as="targetPoint" />
          </mxGeometry>
        </mxCell>
        <mxCell id="CUxfMHXMr-beOVDLbjT0-31" value="" style="group" vertex="1" connectable="0" parent="1">
          <mxGeometry x="484" y="425" width="83" height="83" as="geometry" />
        </mxCell>
        <mxCell id="CUxfMHXMr-beOVDLbjT0-32" value="" style="ellipse;whiteSpace=wrap;html=1;aspect=fixed;fontSize=16;" vertex="1" parent="CUxfMHXMr-beOVDLbjT0-31">
          <mxGeometry width="82.07268524463849" height="82.07268524463849" as="geometry" />
        </mxCell>
        <mxCell id="CUxfMHXMr-beOVDLbjT0-33" value="data" style="ellipse;whiteSpace=wrap;html=1;aspect=fixed;" vertex="1" parent="CUxfMHXMr-beOVDLbjT0-31">
          <mxGeometry x="26.489361702127656" y="10.595744680851066" width="26.193410184459093" height="26.193410184459093" as="geometry" />
        </mxCell>
        <mxCell id="CUxfMHXMr-beOVDLbjT0-34" value="data" style="ellipse;whiteSpace=wrap;html=1;aspect=fixed;" vertex="1" parent="CUxfMHXMr-beOVDLbjT0-31">
          <mxGeometry x="12.361702127659573" y="43.265957446808514" width="26.193410184459093" height="26.193410184459093" as="geometry" />
        </mxCell>
        <mxCell id="CUxfMHXMr-beOVDLbjT0-35" value="data" style="ellipse;whiteSpace=wrap;html=1;aspect=fixed;" vertex="1" parent="CUxfMHXMr-beOVDLbjT0-31">
          <mxGeometry x="45.914893617021285" y="43.265957446808514" width="26.193410184459093" height="26.193410184459093" as="geometry" />
        </mxCell>
        <mxCell id="CUxfMHXMr-beOVDLbjT0-38" value="" style="endArrow=classic;html=1;rounded=0;fontSize=16;entryX=0;entryY=0.5;entryDx=0;entryDy=0;exitX=1;exitY=0.75;exitDx=0;exitDy=0;" edge="1" parent="1" source="CUxfMHXMr-beOVDLbjT0-6" target="CUxfMHXMr-beOVDLbjT0-32">
          <mxGeometry width="50" height="50" relative="1" as="geometry">
            <mxPoint x="377" y="535" as="sourcePoint" />
            <mxPoint x="427" y="485" as="targetPoint" />
          </mxGeometry>
        </mxCell>
        <mxCell id="CUxfMHXMr-beOVDLbjT0-39" value="" style="endArrow=classic;html=1;rounded=0;fontSize=16;entryX=0;entryY=0.75;entryDx=0;entryDy=0;exitX=1;exitY=0.5;exitDx=0;exitDy=0;" edge="1" parent="1" source="CUxfMHXMr-beOVDLbjT0-32" target="CUxfMHXMr-beOVDLbjT0-4">
          <mxGeometry width="50" height="50" relative="1" as="geometry">
            <mxPoint x="646" y="522" as="sourcePoint" />
            <mxPoint x="696" y="472" as="targetPoint" />
          </mxGeometry>
        </mxCell>
        <mxCell id="CUxfMHXMr-beOVDLbjT0-40" value="data" style="ellipse;whiteSpace=wrap;html=1;aspect=fixed;" vertex="1" parent="1">
          <mxGeometry x="102" y="369" width="30" height="30" as="geometry" />
        </mxCell>
        <mxCell id="CUxfMHXMr-beOVDLbjT0-41" value="" style="endArrow=classic;html=1;rounded=0;fontSize=16;entryX=0;entryY=0.5;entryDx=0;entryDy=0;" edge="1" parent="1" target="CUxfMHXMr-beOVDLbjT0-40">
          <mxGeometry width="50" height="50" relative="1" as="geometry">
            <mxPoint x="33" y="383" as="sourcePoint" />
            <mxPoint x="44" y="358" as="targetPoint" />
          </mxGeometry>
        </mxCell>
        <mxCell id="CUxfMHXMr-beOVDLbjT0-42" value="data" style="ellipse;whiteSpace=wrap;html=1;aspect=fixed;" vertex="1" parent="1">
          <mxGeometry x="102" y="405" width="30" height="30" as="geometry" />
        </mxCell>
        <mxCell id="CUxfMHXMr-beOVDLbjT0-43" value="data" style="ellipse;whiteSpace=wrap;html=1;aspect=fixed;" vertex="1" parent="1">
          <mxGeometry x="102" y="446" width="30" height="30" as="geometry" />
        </mxCell>
        <mxCell id="CUxfMHXMr-beOVDLbjT0-44" value="" style="endArrow=classic;html=1;rounded=0;fontSize=16;entryX=0;entryY=0.5;entryDx=0;entryDy=0;" edge="1" parent="1" target="CUxfMHXMr-beOVDLbjT0-42">
          <mxGeometry width="50" height="50" relative="1" as="geometry">
            <mxPoint x="32" y="420" as="sourcePoint" />
            <mxPoint x="60" y="461" as="targetPoint" />
          </mxGeometry>
        </mxCell>
        <mxCell id="CUxfMHXMr-beOVDLbjT0-45" value="" style="endArrow=classic;html=1;rounded=0;fontSize=16;entryX=0;entryY=0.5;entryDx=0;entryDy=0;" edge="1" parent="1" target="CUxfMHXMr-beOVDLbjT0-43">
          <mxGeometry width="50" height="50" relative="1" as="geometry">
            <mxPoint x="27" y="461" as="sourcePoint" />
            <mxPoint x="67" y="447" as="targetPoint" />
          </mxGeometry>
        </mxCell>
        <mxCell id="CUxfMHXMr-beOVDLbjT0-46" value="多线程" style="text;html=1;align=center;verticalAlign=middle;resizable=0;points=[];autosize=1;strokeColor=none;fillColor=none;fontSize=16;" vertex="1" parent="1">
          <mxGeometry x="507" y="285" width="60" height="20" as="geometry" />
        </mxCell>
        <mxCell id="CUxfMHXMr-beOVDLbjT0-49" value="data" style="ellipse;whiteSpace=wrap;html=1;aspect=fixed;" vertex="1" parent="1">
          <mxGeometry x="429" y="378" width="30" height="30" as="geometry" />
        </mxCell>
        <mxCell id="CUxfMHXMr-beOVDLbjT0-50" value="" style="endArrow=none;html=1;rounded=0;fontSize=16;exitX=1;exitY=0.25;exitDx=0;exitDy=0;entryX=0;entryY=0.5;entryDx=0;entryDy=0;" edge="1" parent="1" source="CUxfMHXMr-beOVDLbjT0-6" target="CUxfMHXMr-beOVDLbjT0-49">
          <mxGeometry width="50" height="50" relative="1" as="geometry">
            <mxPoint x="400" y="405" as="sourcePoint" />
            <mxPoint x="483.99999999999955" y="372.03634262231935" as="targetPoint" />
          </mxGeometry>
        </mxCell>
        <mxCell id="CUxfMHXMr-beOVDLbjT0-51" value="data" style="ellipse;whiteSpace=wrap;html=1;aspect=fixed;" vertex="1" parent="1">
          <mxGeometry x="425" y="431" width="30" height="30" as="geometry" />
        </mxCell>
        <mxCell id="CUxfMHXMr-beOVDLbjT0-52" value="API接口" style="rounded=0;whiteSpace=wrap;html=1;fontSize=16;" vertex="1" parent="1">
          <mxGeometry x="8" y="276" width="30" height="256" as="geometry" />
        </mxCell>
        <mxCell id="CUxfMHXMr-beOVDLbjT0-53" style="edgeStyle=orthogonalEdgeStyle;rounded=0;orthogonalLoop=1;jettySize=auto;html=1;exitX=0.5;exitY=1;exitDx=0;exitDy=0;fontSize=16;" edge="1" parent="1" source="CUxfMHXMr-beOVDLbjT0-52" target="CUxfMHXMr-beOVDLbjT0-52">
          <mxGeometry relative="1" as="geometry" />
        </mxCell>
        <mxCell id="CUxfMHXMr-beOVDLbjT0-54" value="线程安全队列" style="text;html=1;align=center;verticalAlign=middle;resizable=0;points=[];autosize=1;strokeColor=none;fillColor=none;fontSize=16;" vertex="1" parent="1">
          <mxGeometry x="237" y="361.5" width="106" height="23" as="geometry" />
        </mxCell>
        <mxCell id="CUxfMHXMr-beOVDLbjT0-69" value="" style="group" vertex="1" connectable="0" parent="1">
          <mxGeometry x="-331" y="429" width="208" height="269" as="geometry" />
        </mxCell>
        <mxCell id="CUxfMHXMr-beOVDLbjT0-84" style="edgeStyle=orthogonalEdgeStyle;rounded=0;orthogonalLoop=1;jettySize=auto;html=1;exitX=0.5;exitY=1;exitDx=0;exitDy=0;entryX=0.5;entryY=0;entryDx=0;entryDy=0;fontSize=16;" edge="1" parent="CUxfMHXMr-beOVDLbjT0-69" source="CUxfMHXMr-beOVDLbjT0-55" target="CUxfMHXMr-beOVDLbjT0-57">
          <mxGeometry relative="1" as="geometry" />
        </mxCell>
        <mxCell id="CUxfMHXMr-beOVDLbjT0-55" value="500byte" style="rounded=0;whiteSpace=wrap;html=1;fontSize=16;" vertex="1" parent="CUxfMHXMr-beOVDLbjT0-69">
          <mxGeometry width="82.09756097560975" height="29" as="geometry" />
        </mxCell>
        <mxCell id="CUxfMHXMr-beOVDLbjT0-57" value="500byte" style="rounded=0;whiteSpace=wrap;html=1;fontSize=16;" vertex="1" parent="CUxfMHXMr-beOVDLbjT0-69">
          <mxGeometry y="43" width="82.09756097560975" height="29" as="geometry" />
        </mxCell>
        <mxCell id="CUxfMHXMr-beOVDLbjT0-58" value="500byte" style="rounded=0;whiteSpace=wrap;html=1;fontSize=16;" vertex="1" parent="CUxfMHXMr-beOVDLbjT0-69">
          <mxGeometry y="86" width="82.09756097560975" height="29" as="geometry" />
        </mxCell>
        <mxCell id="CUxfMHXMr-beOVDLbjT0-62" style="edgeStyle=orthogonalEdgeStyle;rounded=0;orthogonalLoop=1;jettySize=auto;html=1;exitX=0.5;exitY=1;exitDx=0;exitDy=0;entryX=0.5;entryY=0;entryDx=0;entryDy=0;fontSize=16;" edge="1" parent="CUxfMHXMr-beOVDLbjT0-69" source="CUxfMHXMr-beOVDLbjT0-57" target="CUxfMHXMr-beOVDLbjT0-58">
          <mxGeometry relative="1" as="geometry" />
        </mxCell>
        <mxCell id="CUxfMHXMr-beOVDLbjT0-67" value="..." style="rounded=0;whiteSpace=wrap;html=1;fontSize=16;" vertex="1" parent="CUxfMHXMr-beOVDLbjT0-69">
          <mxGeometry y="138" width="82.09756097560975" height="24" as="geometry" />
        </mxCell>
        <mxCell id="CUxfMHXMr-beOVDLbjT0-64" style="edgeStyle=orthogonalEdgeStyle;rounded=0;orthogonalLoop=1;jettySize=auto;html=1;exitX=0.5;exitY=1;exitDx=0;exitDy=0;fontSize=16;entryX=0.5;entryY=0;entryDx=0;entryDy=0;" edge="1" parent="CUxfMHXMr-beOVDLbjT0-69" source="CUxfMHXMr-beOVDLbjT0-58" target="CUxfMHXMr-beOVDLbjT0-67">
          <mxGeometry relative="1" as="geometry">
            <mxPoint x="41.53170731707317" y="133" as="targetPoint" />
          </mxGeometry>
        </mxCell>
        <mxCell id="CUxfMHXMr-beOVDLbjT0-70" value="API接口" style="rounded=0;whiteSpace=wrap;html=1;fontSize=16;" vertex="1" parent="1">
          <mxGeometry x="72" y="788" width="30" height="256" as="geometry" />
        </mxCell>
        <mxCell id="CUxfMHXMr-beOVDLbjT0-96" value="&lt;font style=&quot;font-size: 16px&quot;&gt;Tccm Agent&lt;/font&gt;" style="rounded=1;whiteSpace=wrap;html=1;" vertex="1" parent="1">
          <mxGeometry x="774" y="943.5" width="170" height="60" as="geometry" />
        </mxCell>
        <mxCell id="CUxfMHXMr-beOVDLbjT0-121" style="edgeStyle=orthogonalEdgeStyle;rounded=0;orthogonalLoop=1;jettySize=auto;html=1;exitX=1;exitY=0.5;exitDx=0;exitDy=0;fontSize=16;" edge="1" parent="1" source="CUxfMHXMr-beOVDLbjT0-118" target="CUxfMHXMr-beOVDLbjT0-96">
          <mxGeometry relative="1" as="geometry" />
        </mxCell>
        <mxCell id="CUxfMHXMr-beOVDLbjT0-133" value="" style="group" vertex="1" connectable="0" parent="1">
          <mxGeometry x="138" y="824" width="117" height="230" as="geometry" />
        </mxCell>
        <mxCell id="CUxfMHXMr-beOVDLbjT0-85" value="" style="rounded=0;whiteSpace=wrap;html=1;fontSize=16;" vertex="1" parent="CUxfMHXMr-beOVDLbjT0-133">
          <mxGeometry width="117" height="230" as="geometry" />
        </mxCell>
        <mxCell id="CUxfMHXMr-beOVDLbjT0-115" value="500byte" style="rounded=0;whiteSpace=wrap;html=1;fontSize=16;" vertex="1" parent="CUxfMHXMr-beOVDLbjT0-133">
          <mxGeometry x="15" y="15" width="82.09756097560975" height="29" as="geometry" />
        </mxCell>
        <mxCell id="CUxfMHXMr-beOVDLbjT0-116" value="500byte" style="rounded=0;whiteSpace=wrap;html=1;fontSize=16;" vertex="1" parent="CUxfMHXMr-beOVDLbjT0-133">
          <mxGeometry x="17.900000000000006" y="122" width="82.09756097560975" height="29" as="geometry" />
        </mxCell>
        <mxCell id="CUxfMHXMr-beOVDLbjT0-125" value="500byte" style="rounded=0;whiteSpace=wrap;html=1;fontSize=16;" vertex="1" parent="CUxfMHXMr-beOVDLbjT0-133">
          <mxGeometry x="17.44999999999999" y="70" width="82.09756097560975" height="29" as="geometry" />
        </mxCell>
        <mxCell id="CUxfMHXMr-beOVDLbjT0-126" value="..." style="rounded=0;whiteSpace=wrap;html=1;fontSize=16;" vertex="1" parent="CUxfMHXMr-beOVDLbjT0-133">
          <mxGeometry x="17.44999999999999" y="177" width="82.09756097560975" height="29" as="geometry" />
        </mxCell>
        <mxCell id="CUxfMHXMr-beOVDLbjT0-130" style="edgeStyle=orthogonalEdgeStyle;rounded=0;orthogonalLoop=1;jettySize=auto;html=1;exitX=0.5;exitY=1;exitDx=0;exitDy=0;fontSize=16;" edge="1" parent="CUxfMHXMr-beOVDLbjT0-133" source="CUxfMHXMr-beOVDLbjT0-85" target="CUxfMHXMr-beOVDLbjT0-85">
          <mxGeometry relative="1" as="geometry" />
        </mxCell>
        <mxCell id="CUxfMHXMr-beOVDLbjT0-127" style="edgeStyle=orthogonalEdgeStyle;rounded=0;orthogonalLoop=1;jettySize=auto;html=1;exitX=0.5;exitY=1;exitDx=0;exitDy=0;entryX=0.5;entryY=0;entryDx=0;entryDy=0;fontSize=16;" edge="1" parent="CUxfMHXMr-beOVDLbjT0-133" source="CUxfMHXMr-beOVDLbjT0-115" target="CUxfMHXMr-beOVDLbjT0-125">
          <mxGeometry relative="1" as="geometry" />
        </mxCell>
        <mxCell id="CUxfMHXMr-beOVDLbjT0-128" style="edgeStyle=orthogonalEdgeStyle;rounded=0;orthogonalLoop=1;jettySize=auto;html=1;exitX=0.5;exitY=1;exitDx=0;exitDy=0;entryX=0.5;entryY=0;entryDx=0;entryDy=0;fontSize=16;" edge="1" parent="CUxfMHXMr-beOVDLbjT0-133" source="CUxfMHXMr-beOVDLbjT0-125" target="CUxfMHXMr-beOVDLbjT0-116">
          <mxGeometry relative="1" as="geometry" />
        </mxCell>
        <mxCell id="CUxfMHXMr-beOVDLbjT0-129" style="edgeStyle=orthogonalEdgeStyle;rounded=0;orthogonalLoop=1;jettySize=auto;html=1;exitX=0.5;exitY=1;exitDx=0;exitDy=0;entryX=0.5;entryY=0;entryDx=0;entryDy=0;fontSize=16;" edge="1" parent="CUxfMHXMr-beOVDLbjT0-133" source="CUxfMHXMr-beOVDLbjT0-116" target="CUxfMHXMr-beOVDLbjT0-126">
          <mxGeometry relative="1" as="geometry" />
        </mxCell>
        <mxCell id="CUxfMHXMr-beOVDLbjT0-134" value="" style="group" vertex="1" connectable="0" parent="1">
          <mxGeometry x="303" y="901" width="230" height="71" as="geometry" />
        </mxCell>
        <mxCell id="CUxfMHXMr-beOVDLbjT0-89" value="" style="rounded=1;whiteSpace=wrap;html=1;fontSize=16;" vertex="1" parent="CUxfMHXMr-beOVDLbjT0-134">
          <mxGeometry width="230" height="71" as="geometry" />
        </mxCell>
        <mxCell id="CUxfMHXMr-beOVDLbjT0-72" value="point" style="ellipse;whiteSpace=wrap;html=1;aspect=fixed;fontSize=16;" vertex="1" parent="CUxfMHXMr-beOVDLbjT0-134">
          <mxGeometry x="16" y="14.75" width="41.5" height="41.5" as="geometry" />
        </mxCell>
        <mxCell id="CUxfMHXMr-beOVDLbjT0-74" value="point" style="ellipse;whiteSpace=wrap;html=1;aspect=fixed;fontSize=16;" vertex="1" parent="CUxfMHXMr-beOVDLbjT0-134">
          <mxGeometry x="92" y="14.75" width="41.5" height="41.5" as="geometry" />
        </mxCell>
        <mxCell id="CUxfMHXMr-beOVDLbjT0-75" value="point" style="ellipse;whiteSpace=wrap;html=1;aspect=fixed;fontSize=16;" vertex="1" parent="CUxfMHXMr-beOVDLbjT0-134">
          <mxGeometry x="172" y="14.75" width="41.5" height="41.5" as="geometry" />
        </mxCell>
        <mxCell id="CUxfMHXMr-beOVDLbjT0-79" style="edgeStyle=orthogonalEdgeStyle;rounded=0;orthogonalLoop=1;jettySize=auto;html=1;exitX=1;exitY=0.5;exitDx=0;exitDy=0;entryX=0;entryY=0.5;entryDx=0;entryDy=0;fontSize=16;" edge="1" parent="CUxfMHXMr-beOVDLbjT0-134" source="CUxfMHXMr-beOVDLbjT0-72" target="CUxfMHXMr-beOVDLbjT0-74">
          <mxGeometry relative="1" as="geometry">
            <mxPoint x="441" y="962.5" as="targetPoint" />
          </mxGeometry>
        </mxCell>
        <mxCell id="CUxfMHXMr-beOVDLbjT0-81" style="edgeStyle=orthogonalEdgeStyle;rounded=0;orthogonalLoop=1;jettySize=auto;html=1;exitX=1;exitY=0.5;exitDx=0;exitDy=0;entryX=0;entryY=0.5;entryDx=0;entryDy=0;fontSize=16;" edge="1" parent="CUxfMHXMr-beOVDLbjT0-134" source="CUxfMHXMr-beOVDLbjT0-74" target="CUxfMHXMr-beOVDLbjT0-75">
          <mxGeometry relative="1" as="geometry" />
        </mxCell>
        <mxCell id="CUxfMHXMr-beOVDLbjT0-124" value="" style="endArrow=classic;html=1;rounded=0;fontSize=16;exitX=1;exitY=0.5;exitDx=0;exitDy=0;entryX=0;entryY=0.5;entryDx=0;entryDy=0;" edge="1" parent="1" source="CUxfMHXMr-beOVDLbjT0-116" target="CUxfMHXMr-beOVDLbjT0-72">
          <mxGeometry width="50" height="50" relative="1" as="geometry">
            <mxPoint x="239" y="808" as="sourcePoint" />
            <mxPoint x="289" y="758" as="targetPoint" />
          </mxGeometry>
        </mxCell>
        <mxCell id="CUxfMHXMr-beOVDLbjT0-135" value="线程安全队列" style="text;html=1;align=center;verticalAlign=middle;resizable=0;points=[];autosize=1;strokeColor=none;fillColor=none;fontSize=16;" vertex="1" parent="1">
          <mxGeometry x="346" y="983" width="106" height="23" as="geometry" />
        </mxCell>
        <mxCell id="CUxfMHXMr-beOVDLbjT0-136" value="内存池" style="text;html=1;align=center;verticalAlign=middle;resizable=0;points=[];autosize=1;strokeColor=none;fillColor=none;fontSize=16;" vertex="1" parent="1">
          <mxGeometry x="167.5" y="795" width="58" height="23" as="geometry" />
        </mxCell>
        <mxCell id="CUxfMHXMr-beOVDLbjT0-137" value="待发送数据" style="text;html=1;align=center;verticalAlign=middle;resizable=0;points=[];autosize=1;strokeColor=none;fillColor=none;fontSize=16;" vertex="1" parent="1">
          <mxGeometry x="595" y="1060" width="90" height="23" as="geometry" />
        </mxCell>
        <mxCell id="CUxfMHXMr-beOVDLbjT0-122" value="" style="endArrow=classic;html=1;rounded=0;fontSize=16;exitX=1;exitY=0.25;exitDx=0;exitDy=0;entryX=0;entryY=0.75;entryDx=0;entryDy=0;" edge="1" parent="1" source="CUxfMHXMr-beOVDLbjT0-70" target="CUxfMHXMr-beOVDLbjT0-115">
          <mxGeometry width="50" height="50" relative="1" as="geometry">
            <mxPoint x="-59" y="922" as="sourcePoint" />
            <mxPoint x="-9" y="872" as="targetPoint" />
          </mxGeometry>
        </mxCell>
        <mxCell id="CUxfMHXMr-beOVDLbjT0-131" value="" style="endArrow=classic;html=1;rounded=0;fontSize=16;exitX=1;exitY=0.5;exitDx=0;exitDy=0;entryX=0;entryY=0.5;entryDx=0;entryDy=0;" edge="1" parent="1" source="CUxfMHXMr-beOVDLbjT0-70" target="CUxfMHXMr-beOVDLbjT0-125">
          <mxGeometry width="50" height="50" relative="1" as="geometry">
            <mxPoint x="-68" y="1026" as="sourcePoint" />
            <mxPoint x="-18" y="976" as="targetPoint" />
          </mxGeometry>
        </mxCell>
        <mxCell id="CUxfMHXMr-beOVDLbjT0-132" value="" style="endArrow=classic;html=1;rounded=0;fontSize=16;exitX=1;exitY=0.75;exitDx=0;exitDy=0;entryX=0;entryY=0.5;entryDx=0;entryDy=0;" edge="1" parent="1" source="CUxfMHXMr-beOVDLbjT0-70" target="CUxfMHXMr-beOVDLbjT0-116">
          <mxGeometry width="50" height="50" relative="1" as="geometry">
            <mxPoint x="-79" y="1048" as="sourcePoint" />
            <mxPoint x="-29" y="998" as="targetPoint" />
          </mxGeometry>
        </mxCell>
        <mxCell id="CUxfMHXMr-beOVDLbjT0-139" value="" style="group" vertex="1" connectable="0" parent="1">
          <mxGeometry x="615" y="897" width="50" height="153" as="geometry" />
        </mxCell>
        <mxCell id="CUxfMHXMr-beOVDLbjT0-118" value="" style="rounded=0;whiteSpace=wrap;html=1;fontSize=16;" vertex="1" parent="CUxfMHXMr-beOVDLbjT0-139">
          <mxGeometry width="50" height="153" as="geometry" />
        </mxCell>
        <mxCell id="CUxfMHXMr-beOVDLbjT0-104" value="point" style="ellipse;whiteSpace=wrap;html=1;aspect=fixed;fontSize=16;" vertex="1" parent="CUxfMHXMr-beOVDLbjT0-139">
          <mxGeometry x="4.631578947368439" y="9.004504504504553" width="36.22072072072072" height="36.22072072072072" as="geometry" />
        </mxCell>
        <mxCell id="CUxfMHXMr-beOVDLbjT0-105" value="point" style="ellipse;whiteSpace=wrap;html=1;aspect=fixed;fontSize=16;" vertex="1" parent="CUxfMHXMr-beOVDLbjT0-139">
          <mxGeometry x="4.631578947368439" y="57.860360360360346" width="36.22072072072072" height="36.22072072072072" as="geometry" />
        </mxCell>
        <mxCell id="CUxfMHXMr-beOVDLbjT0-109" value="point" style="ellipse;whiteSpace=wrap;html=1;aspect=fixed;fontSize=16;" vertex="1" parent="CUxfMHXMr-beOVDLbjT0-139">
          <mxGeometry x="4.631578947368439" y="109.24324324324323" width="36.22072072072072" height="36.22072072072072" as="geometry" />
        </mxCell>
        <mxCell id="CUxfMHXMr-beOVDLbjT0-103" style="edgeStyle=orthogonalEdgeStyle;rounded=0;orthogonalLoop=1;jettySize=auto;html=1;exitX=0.5;exitY=1;exitDx=0;exitDy=0;entryX=0.5;entryY=0;entryDx=0;entryDy=0;fontSize=16;" edge="1" parent="CUxfMHXMr-beOVDLbjT0-139" source="CUxfMHXMr-beOVDLbjT0-104" target="CUxfMHXMr-beOVDLbjT0-105">
          <mxGeometry relative="1" as="geometry" />
        </mxCell>
        <mxCell id="CUxfMHXMr-beOVDLbjT0-110" style="edgeStyle=orthogonalEdgeStyle;rounded=0;orthogonalLoop=1;jettySize=auto;html=1;exitX=0.5;exitY=1;exitDx=0;exitDy=0;entryX=0.5;entryY=0;entryDx=0;entryDy=0;fontSize=16;" edge="1" parent="CUxfMHXMr-beOVDLbjT0-139" source="CUxfMHXMr-beOVDLbjT0-105" target="CUxfMHXMr-beOVDLbjT0-109">
          <mxGeometry relative="1" as="geometry" />
        </mxCell>
        <mxCell id="CUxfMHXMr-beOVDLbjT0-117" value="" style="endArrow=classic;html=1;rounded=0;fontSize=16;exitX=0.5;exitY=0;exitDx=0;exitDy=0;entryX=0.5;entryY=0;entryDx=0;entryDy=0;" edge="1" parent="1" source="CUxfMHXMr-beOVDLbjT0-72" target="CUxfMHXMr-beOVDLbjT0-104">
          <mxGeometry width="50" height="50" relative="1" as="geometry">
            <mxPoint x="718" y="859" as="sourcePoint" />
            <mxPoint x="838" y="905" as="targetPoint" />
            <Array as="points">
              <mxPoint x="340" y="868" />
              <mxPoint x="638" y="870" />
            </Array>
          </mxGeometry>
        </mxCell>
        <mxCell id="CUxfMHXMr-beOVDLbjT0-140" value="&lt;font style=&quot;font-size: 17px&quot;&gt;Tccm SDK&lt;/font&gt;" style="text;html=1;align=center;verticalAlign=middle;resizable=0;points=[];autosize=1;strokeColor=none;fillColor=none;fontSize=16;" vertex="1" parent="1">
          <mxGeometry x="350" y="772" width="90" height="23" as="geometry" />
        </mxCell>
      </root>
    </mxGraphModel>
  </diagram>
</mxfile>
